<?xml version="1.0" standalone="no"?>
<!DOCTYPE svg PUBLIC "-//W3C//DTD SVG 20010904//EN"
 "http://www.w3.org/TR/2001/REC-SVG-20010904/DTD/svg10.dtd">
<svg version="1.0" xmlns="http://www.w3.org/2000/svg"
     width="1024.000000pt" height="1024.000000pt"
     viewBox="0 0 1024.000000 1024.000000"
     preserveAspectRatio="xMidYMid meet">

  <g transform="translate(0.000000,1024.000000) scale(0.100000,-0.100000)"
     fill="#FF8C00" stroke="none">
    <path d="M4645 8493 c-314 -28 -603 -169 -846 -412 -207 -208 -338 -446 -401
           -731 -23 -104 -23 -112 -23 -765 0 -600 2 -668 18 -745 42 -195 131 -397
           234 -533 60 -78 123 -147 134 -147 4 0 17 32 28 70 75 247 277 515 499 660
           l82 55 0 530 c0 585 3 614 62 735 39 82 151 195 230 234 115 56 107 56 830
           56 718 0 738 1 866 54 147 59 312 199 391 329 82 139 111 260 111 473 l0
           144 -1087 -2 c-599 -1 -1106 -3 -1128 -5z"/>
    <path d="M4878 7091 c-21 -4 -47 -16 -59 -27 -49 -44 -49 -47 -49 -481 0 -457
           1 -461 70 -495 32 -16 78 -18 508 -18 318 0 472 -3 472 -10 0 -18 -51 -113
           -87 -163 -42 -57 -139 -128 -225 -165 -63 -26 -65 -26 -393 -33 -343 -6
           -369 -9 -491 -57 -271 -107 -480 -386 -510 -683 l-6 -65 89 -41 c240 -110
           334 -123 890 -123 512 0 611 9 818 77 424 138 766 480 898 898 53 171 57
           222 57 827 l0 558 -507 0 c-280 0 -717 2 -973 4 -256 2 -482 1 -502 -3z"/>
    <path d="M6930 3756 c0 -356 -4 -583 -10 -614 -13 -60 -60 -118 -114 -143 -36
           -16 -69 -19 -289 -19 -201 0 -255 3 -285 15 -47 20 -78 50 -105 100 -20 37
           -22 55 -22 220 0 167 2 183 22 222 27 50 73 87 128 102 24 7 141 11 293 11
           l252 0 0 91 0 90 -298 -3 -298 -3 -57 -35 c-86 -52 -164 -131 -195 -197 -27
           -58 -27 -59 -27 -283 0 -215 1 -227 23 -268 31 -57 82 -112 155 -168 102
           -77 94 -75 428 -72 l296 3 59 39 c80 54 156 132 190 197 l29 54 0 530 c0
           524 0 530 -22 570 -27 51 -68 90 -115 110 l-38 15 0 -564z"/>
    <path d="M2087 4175 c-101 -35 -227 -147 -274 -242 l-28 -58 -3 -358 c-4 -399
           -1 -423 61 -513 38 -55 159 -155 227 -187 42 -20 63 -22 308 -25 332 -5 376
           2 476 69 92 61 140 114 180 198 l31 66 0 260 0 260 -250 0 c-275 0 -279 -1
           -344 -66 -34 -33 -77 -108 -64 -110 5 -1 100 -1 213 1 130 1 215 -2 233 -9
           l28 -11 -3 -153 c-3 -151 -4 -155 -33 -203 -19 -30 -49 -60 -79 -79 l-49
           -30 -276 -3 c-238 -3 -282 -1 -319 14 -56 21 -107 66 -135 118 -21 40 -22
           50 -22 381 0 331 1 341 22 381 23 44 65 83 117 112 27 15 78 18 421 22 l390
           5 55 31 c49 28 120 108 120 135 0 5 -207 9 -482 9 -382 -1 -491 -4 -521 -15z"/>
    <path d="M3543 4176 c-61 -19 -180 -103 -215 -150 -16 -23 -42 -63 -56 -91
           l-27 -50 0 -390 0 -390 28 -57 c51 -104 203 -220 321 -245 44 -9 185 -13
           519 -13 444 0 457 1 457 19 0 36 -63 104 -125 136 l-59 30 -395 5 c-438 6
           -424 3 -494 74 -71 70 -72 76 -75 423 -2 196 1 326 7 351 15 53 62 116 113
           149 l41 28 411 5 c405 5 412 5 458 28 49 24 97 72 123 122 l16 30 -503 -1
           c-384 0 -513 -3 -545 -13z"/>
    <path d="M4877 3816 c-90 -33 -204 -133 -244 -214 l-28 -57 0 -230 c0 -247 0
           -249 59 -328 32 -44 160 -145 213 -170 46 -20 60 -21 312 -20 260 2 265 3
           315 27 77 38 189 146 223 214 28 57 28 57 28 267 0 276 -3 285 -110 391
           -132 130 -128 129 -455 131 -214 2 -283 0 -313 -11z m544 -176 c56 -16 101
           -51 128 -100 23 -41 24 -53 25 -224 1 -167 -1 -184 -21 -221 -27 -50 -58
           -80 -105 -100 -30 -12 -83 -15 -270 -15 -215 0 -235 2 -275 21 -54 26 -98
           79 -112 135 -14 53 -14 258 -1 338 14 86 67 148 143 166 48 12 447 11 488
           0z"/>
    <path d="M7557 3816 c-87 -32 -204 -132 -245 -211 l-27 -50 0 -240 0 -240 29
           -53 c21 -37 54 -73 110 -118 142 -113 126 -109 456 -109 321 0 314 -1 419
           79 109 84 150 153 151 249 0 56 -1 57 -27 57 -52 0 -126 -44 -187 -111 -31
           -35 -67 -69 -79 -76 -16 -9 -97 -12 -283 -13 -254 0 -262 1 -305 23 -29 16
           -54 40 -74 72 -30 48 -30 48 -33 227 -4 177 -3 180 23 234 20 41 38 61 73
           82 l47 27 275 0 c259 0 277 -1 310 -21 19 -11 45 -36 58 -55 28 -41 25 -89
           -10 -127 -43 -47 -73 -52 -286 -52 -122 0 -212 -4 -233 -11 -67 -23 -130
           -85 -145 -143 l-6 -27 308 3 c289 3 312 4 354 24 64 30 157 109 191 162 24
           39 29 56 29 111 -1 89 -23 133 -106 210 -120 110 -102 106 -449 108 -235 2
           -308 0 -338 -11z"/>
    <path d="M5530 2335 l0 -195 -45 32 c-38 27 -57 33 -114 36 -78 5 -119 -10
           -170 -60 -52 -51 -65 -85 -65 -163 0 -140 91 -235 226 -235 52 0 129 27 142
           49 12 19 26 12 26 -12 0 -30 6 -36 30 -30 19 5 20 20 22 389 l3 384 -27 0
           -28 0 0 -195z m-71 -213 c49 -36 71 -80 71 -141 0 -68 -23 -116 -71 -149
           -30 -21 -44 -23 -106 -20 -66 3 -75 6 -107 37 -103 100 -55 277 81 300 47 9
           99 -2 132 -27z"/>
    <path d="M5767 2413 c-11 -11 -8 -48 5 -61 20 -20 58 -14 67 11 12 32 -4 57
           -38 57 -15 0 -31 -3 -34 -7z"/>
    <path d="M4300 2300 l0 -90 -39 0 c-26 0 -41 -5 -45 -16 -13 -34 -6 -43 37
           -46 l42 -3 5 -168 5 -169 33 -29 c25 -22 42 -29 75 -29 55 0 76 13 61 37
           -8 12 -21 17 -41 15 -18 -2 -39 4 -54 17 -24 19 -24 22 -24 173 l0 153 58 3
           c56 3 57 4 57 32 0 30 0 30 -61 30 l-60 0 1 78 c1 42 1 83 1 90 -1 6 -12 12
           -26 12 -25 0 -25 -1 -25 -90z"/>
    <path d="M3882 2190 c-41 -25 -66 -81 -57 -126 8 -46 62 -88 143 -109 73 -20
           112 -51 112 -89 0 -32 -35 -56 -89 -63 -32 -4 -53 1 -96 23 -51 25 -57 26
           -72 11 -21 -21 -8 -38 51 -66 86 -42 208 -21 247 43 53 88 -1 163 -140 196
           -95 22 -130 85 -73 130 38 31 112 24 151 -14 26 -25 28 -26 44 -8 15 17 15
           20 0 41 -36 52 -159 69 -221 31z"/>
    <path d="M4617 2204 c-4 -4 -7 -74 -7 -156 0 -191 16 -235 102 -279 50 -26
           142 -26 185 0 31 19 31 19 36 0 3 -11 14 -19 26 -19 21 0 21 3 21 230 l0
           230 -25 0 -25 0 -1 -147 c0 -171 -9 -207 -59 -241 -61 -41 -151 -18 -185 49
           -12 23 -17 66 -18 182 -2 145 -3 152 -22 155 -12 2 -24 0 -28 -4z"/>
    <path d="M5772 1983 l3 -228 25 0 25 0 0 225 0 225 -28 3 -28 3 3 -228z"/>
    <path d="M6115 2191 c-139 -64 -178 -244 -78 -360 91 -107 261 -109 352 -6
           131 149 24 384 -174 384 -38 1 -75 -6 -100 -18z m190 -62 c95 -66 110 -196
           31 -275 -76 -76 -202 -63 -269 28 -25 33 -33 114 -17 162 12 38 78 102 114
           110 39 8 110 -4 141 -25z"/>
  </g>
</svg>