<?xml version="1.0" standalone="no"?>
<!DOCTYPE svg PUBLIC "-//W3C//DTD SVG 20010904//EN"
 "http://www.w3.org/TR/2001/REC-SVG-20010904/DTD/svg10.dtd">
<svg version="1.0" xmlns="http://www.w3.org/2000/svg"
     viewBox="0 0 800.000000 512.000000"
     preserveAspectRatio="xMidYMid meet">

  <g transform="translate(0.000000,1024.000000) scale(0.100000,-0.100000)"
     fill="#FF8C00" stroke="none">
    <path d="M4645 8493 c-314 -28 -603 -169 -846 -412 -207 -208 -338 -446 -401
           -731 -23 -104 -23 -112 -23 -765 0 -600 2 -668 18 -745 42 -195 131 -397
           234 -533 60 -78 123 -147 134 -147 4 0 17 32 28 70 75 247 277 515 499 660
           l82 55 0 530 c0 585 3 614 62 735 39 82 151 195 230 234 115 56 107 56 830
           56 718 0 738 1 866 54 147 59 312 199 391 329 82 139 111 260 111 473 l0
           144 -1087 -2 c-599 -1 -1106 -3 -1128 -5z"/>
    <path d="M4878 7091 c-21 -4 -47 -16 -59 -27 -49 -44 -49 -47 -49 -481 0 -457
           1 -461 70 -495 32 -16 78 -18 508 -18 318 0 472 -3 472 -10 0 -18 -51 -113
           -87 -163 -42 -57 -139 -128 -225 -165 -63 -26 -65 -26 -393 -33 -343 -6
           -369 -9 -491 -57 -271 -107 -480 -386 -510 -683 l-6 -65 89 -41 c240 -110
           334 -123 890 -123 512 0 611 9 818 77 424 138 766 480 898 898 53 171 57
           222 57 827 l0 558 -507 0 c-280 0 -717 2 -973 4 -256 2 -482 1 -502 -3z"/>
  </g>
</svg>